<svg width="83" height="87" viewBox="0 0 83 87" fill="none" xmlns="http://www.w3.org/2000/svg">
<g clip-path="url(#clip0_6_3418)">
<path d="M73.4998 49.0205H60.3041V42.4023H73.4998V49.0205ZM73.4998 52.8021H60.3041V59.4204H73.4998V52.8021ZM73.4998 21.6025H60.3041V28.2206H73.4998V21.6025ZM73.4998 32.0024H60.3041V38.6204H73.4998V32.0024ZM73.4998 63.202H60.3041V69.8202H73.4998V63.202ZM82.6141 76.2492C82.2372 78.2158 79.8807 78.263 78.3067 78.3293H48.9936V86.8382H43.1403L0 79.2745V13.103L43.3949 5.52998H48.9936V13.0652H77.2982C78.8912 13.1313 80.6443 13.0179 82.0297 13.9727C83.0006 15.372 82.9065 17.1495 82.9724 18.7567L82.9347 67.9765C82.8877 70.7278 83.1891 73.5359 82.6141 76.2492ZM34.563 61.4152C31.9617 56.1208 29.3132 50.864 26.7212 45.5695C29.2849 40.4168 31.811 35.2453 34.3276 30.0737C32.1879 30.1777 30.0483 30.31 27.9183 30.4614C26.3253 34.3471 24.4684 38.1289 23.2243 42.147C22.065 38.3558 20.5287 34.7063 19.1243 31.0097C17.0507 31.1231 14.977 31.246 12.9035 31.3689C15.0901 36.2098 17.4184 40.984 19.539 45.8531C17.0413 50.5803 14.7038 55.3739 12.2814 60.1294C14.3455 60.2144 16.4097 60.2996 18.4738 60.3279C19.9443 56.5651 21.7728 52.944 23.0547 49.1055C24.2046 53.2277 26.1556 57.0378 27.758 60.9802C30.0295 61.1412 32.2915 61.2829 34.563 61.4152ZM78.477 17.5554H48.9936V21.6025H56.534V28.2206H48.9936V32.0024H56.534V38.6204H48.9936V42.4023H56.534V49.0205H48.9936V52.8021H56.534V59.4204H48.9936V63.202H56.534V69.8202H48.9936V74.1924H78.477V17.5554Z" fill="#2C7A4F"/>
</g>
<defs>
<clipPath id="clip0_6_3418">
<rect width="83" height="86" fill="white" transform="translate(0 0.50061)"/>
</clipPath>
</defs>
</svg>
