<svg width="68" height="69" viewBox="0 0 68 69" fill="none" xmlns="http://www.w3.org/2000/svg">
<path d="M64.929 7.46623H40.15V1.28687H35.5309L0 7.48164V61.535L35.3224 67.7144H40.15V61.5581H63.3377C64.6509 61.4963 66.1107 61.5968 67.2384 60.7935C68.1421 59.4109 67.9105 57.6806 67.9876 56.1204V10.4631C68.1498 8.70205 66.6901 7.28853 64.929 7.46623ZM25.7676 44.9977C24.4777 45.6697 22.5466 44.9668 21.0173 45.0749C19.99 39.9616 18.7927 34.8791 17.8736 29.7426C16.9699 34.7324 15.7958 39.6757 14.7608 44.6346C13.2778 44.5574 11.7871 44.4646 10.2963 44.3643C9.01398 37.567 7.50789 30.8161 6.31059 24.0035C7.63141 23.9418 8.95993 23.8877 10.2807 23.8414C11.0763 28.7617 11.9801 33.6587 12.6754 38.5867C13.7644 33.5351 14.8766 28.4835 15.9581 23.432C17.4257 23.347 18.8932 23.2853 20.3608 23.208C21.3881 28.4218 22.4385 33.6278 23.5508 38.8183C24.4237 33.4579 25.3891 28.1127 26.3238 22.76C27.8686 22.7059 29.4135 22.6209 30.9505 22.5282C29.2049 30.0129 27.6755 37.5594 25.7676 44.9977ZM64.3114 57.8897H40.15V53.0385H60.2326V49.9488H40.15V46.0868H60.2326V42.9972H40.15V39.135H60.2326V36.0455H40.15V32.1833H60.2326V29.0938H40.15V25.2316H60.2326V22.142H40.15V18.28H60.2326V15.1903H40.15V11.1117H64.3114V57.8897Z" fill="#00539B"/>
</svg>
